<?xml version="1.0" encoding="UTF-8" standalone="no"?>
<svg
   width="269.29pt"
   height="145.7pt"
   viewBox="0 0 269.29 145.7"
   version="1.1"
   id="svg36"
   sodipodi:docname="kroonoillogo.svg"
   inkscape:version="1.1 (c68e22c387, 2021-05-23)"
   xmlns:inkscape="http://www.inkscape.org/namespaces/inkscape"
   xmlns:sodipodi="http://sodipodi.sourceforge.net/DTD/sodipodi-0.dtd"
   xmlns="http://www.w3.org/2000/svg"
   xmlns:svg="http://www.w3.org/2000/svg">
  <sodipodi:namedview
     id="namedview38"
     pagecolor="#ffffff"
     bordercolor="#666666"
     borderopacity="1.0"
     inkscape:pageshadow="2"
     inkscape:pageopacity="0.0"
     inkscape:pagecheckerboard="0"
     inkscape:document-units="pt"
     showgrid="false"
     inkscape:zoom="1.9147573"
     inkscape:cx="48.831255"
     inkscape:cy="96.879121"
     inkscape:window-width="1920"
     inkscape:window-height="1001"
     inkscape:window-x="-9"
     inkscape:window-y="-9"
     inkscape:window-maximized="1"
     inkscape:current-layer="svg36" />
  <defs
     id="defs5">
    <clipPath
       id="clip1">
      <path
         d="M 0 0 L 269.289063 0 L 269.289063 145.699219 L 0 145.699219 Z M 0 0 "
         id="path2" />
    </clipPath>
  </defs>
  <g
     id="surface1"
     transform="matrix(0.76310829,0,0,0.73617519,29.741868,20.002924)">
    <path
       style="fill:#fff000;fill-opacity:1;fill-rule:nonzero;stroke:none"
       d="m 134.64453,1.984375 c 73.07031,0 132.66406,31.777344 132.66406,70.792969 0,39.019536 -59.59375,70.937496 -132.66406,70.937496 -73.070311,0 -132.660155,-31.91796 -132.660155,-70.937496 0,-39.015625 59.589844,-70.792969 132.660155,-70.792969"
       id="path7" />
    <g
       clip-path="url(#clip1)"
       clip-rule="nonzero"
       id="g11">
      <path
         style="fill:none;stroke:#000000;stroke-width:39.685;stroke-linecap:butt;stroke-linejoin:miter;stroke-miterlimit:4;stroke-opacity:1"
         d="m 1346.4453,1437.1563 c 730.7031,0 1326.6406,-317.7735 1326.6406,-707.92974 0,-390.19531 -595.9375,-709.374997 -1326.6406,-709.374997 -730.70311,0 -1326.60155,319.179687 -1326.60155,709.374997 0,390.15624 595.89844,707.92974 1326.60155,707.92974 z m 0,0"
         transform="matrix(0.1,0,0,-0.1,0,145.7)"
         id="path9" />
    </g>
    <path
       style="fill:#eb1923;fill-opacity:1;fill-rule:nonzero;stroke:none"
       d="m 126.83984,15.179688 c -2.125,-4.824219 11.21094,-5.109375 9.36719,-0.144532 -0.56641,1.277344 -2.55469,2.980469 -2.27344,4.824219 0.14453,1.703125 3.97266,0.707031 4.25782,3.121094 0.85156,3.832031 -6.24219,13.761719 -2.83594,17.023437 0.14062,0.144532 0.42578,0.285157 0.70703,0.429688 0.71094,0.140625 1.84375,0.140625 2.41406,0 5.39453,-2.699219 -2.98047,-17.3125 4.11328,-18.871094 1.70313,-0.285156 3.83203,0 5.25391,0.707031 5.95703,2.699219 -1.5625,12.488282 -2.13281,16.886719 -0.13672,1.132813 0.28906,2.410156 1.5664,2.695313 3.39844,0.140625 3.26172,-10.074219 3.82813,-12.628907 0.42578,-1.558593 0.99219,-3.546875 2.55078,-4.679687 0.71484,-0.429688 1.99219,-0.851563 2.83984,-0.429688 1.84375,0.429688 2.69532,1.988282 2.55078,3.832032 -0.13671,3.691406 -3.26171,6.667968 -4.53515,9.933593 -1.27735,3.40625 -1.84766,7.234375 -3.54688,10.496094 -0.28906,0.855469 -0.71093,1.277344 -1.27734,1.847656 -0.28516,0.140625 -0.57031,0.28125 -0.85156,0.425782 -2.27344,0.710937 -6.38672,-0.710938 -8.94141,-0.996094 -3.97266,-0.28125 -8.22656,-0.28125 -12.34375,-0.28125 -3.12109,0.421875 -5.95703,0.707031 -9.08203,1.132812 -1.13281,0.144532 -2.125,0.425782 -3.40625,0.285157 -0.84766,0 -1.41406,-0.140625 -2.125,-0.710938 -1.70312,-1.277344 -3.83203,-9.789062 -4.82422,-12.199219 -1.41797,-2.980468 -6.10156,-9.082031 -3.97265,-12.484375 0.71093,-0.996093 1.55859,-1.417968 2.98046,-1.417968 5.67579,-0.144532 5.25,10.355468 5.95704,14.609375 0.14453,1.136718 1.70312,4.96875 3.55078,2.699218 3.40234,-4.257812 -7.37891,-13.480468 -3.26563,-18.164062 0.85156,-0.992188 2.12891,-1.417969 3.40625,-1.558594 0.85156,0 2.69531,-0.570312 4.82422,0.140625 5.10547,2.128906 -3.26562,19.582031 4.82422,18.871094 0.56641,0 1.27344,-0.425781 1.55859,-0.851563 3.26563,-3.6875 -5.25,-14.472656 -2.69531,-17.875 0.71094,-0.710937 3.83203,-1.136718 3.97266,-2.128906 0.28515,-1.847656 -1.98438,-3.265625 -2.41407,-4.539062"
       id="path13" />
    <path
       style="fill:#000000;fill-opacity:1;fill-rule:nonzero;stroke:none"
       d="M 130.95703,131.79687 V 95.054688 h 14.04688 v 36.742182 h -14.04688"
       id="path15" />
    <path
       style="fill:#000000;fill-opacity:1;fill-rule:nonzero;stroke:none"
       d="M 149.26172,131.79687 V 95.054688 h 13.90234 v 24.261722 h 8.94141 v 12.48046 h -22.84375"
       id="path17" />
    <path
       style="fill:#000000;fill-opacity:1;fill-rule:nonzero;stroke:none"
       d="M 41.714844,90.941406 V 54.761719 H 56.609375 V 65.683594 L 61.71875,54.761719 h 14.753906 l -8.230468,15.746094 9.648437,20.433593 h -15.75 l -5.53125,-12.0625 v 12.0625 H 41.714844"
       id="path19" />
    <path
       style="fill:#000000;fill-opacity:1;fill-rule:nonzero;stroke:none"
       d="m 94.777344,64.265625 c 0.28125,0 0.566406,0 0.847656,0 V 54.761719 H 78.601563 V 90.941406 H 92.929688 V 79.730469 L 95.625,85.121094 V 71.21875 c -0.28125,0 -0.566406,0 -0.847656,0 h -1.847656 v -6.953125 z m 0.847656,0 c 0.710938,0.140625 1.28125,0.429688 1.847656,0.851563 0.570313,0.710937 0.851563,1.5625 0.851563,2.699218 0,1.132813 -0.28125,1.984375 -0.851563,2.550782 -0.566406,0.425781 -1.136718,0.710937 -1.847656,0.851562 v 13.902344 l 2.839844,5.820312 H 113.07813 L 105.55859,76.1875 c 2.26954,-1.136719 2.83985,-1.421875 4.11719,-2.839844 1.27344,-1.703125 1.84375,-3.832031 1.84375,-6.382812 0,-3.976563 -1.27734,-6.953125 -3.97265,-9.082031 -2.55469,-2.128907 -5.10938,-3.121094 -11.496099,-3.121094 H 95.625 v 9.503906"
       id="path21" />
    <path
       style="fill:#000000;fill-opacity:1;fill-rule:nonzero;stroke:none"
       d="M 190.83594,90.941406 V 54.761719 H 202.75 l 10.21484,12.910156 V 54.761719 h 13.19922 v 36.179687 l -11.49609,0.140625 -10.92578,-13.761718 v 13.621093 h -12.90625"
       id="path23" />
    <path
       style="fill:#000000;fill-opacity:1;fill-rule:nonzero;stroke:none"
       d="m 127.69141,76.894531 c -0.99219,-0.992187 -1.27344,-2.273437 -1.27344,-3.972656 0,-1.703125 0.28125,-2.980469 1.27344,-3.972656 0.85156,-0.992188 1.98828,-1.5625 3.40625,-1.5625 V 53.769531 c -2.55469,0 -5.10547,0.425782 -7.37891,1.417969 -2.26953,0.851563 -4.39844,2.269531 -6.09766,4.113281 -1.84375,1.703125 -3.26562,3.832032 -4.11718,6.101563 -0.84766,2.269531 -1.41797,4.824219 -1.41797,7.519531 0,2.695313 0.57031,5.25 1.41797,7.519531 0.85156,2.269532 2.27343,4.398438 4.11718,6.101563 1.69922,1.84375 3.82813,3.261719 6.09766,4.113281 2.27344,0.992188 4.82422,1.558594 7.37891,1.558594 V 78.457031 c -1.41797,0 -2.55469,-0.570312 -3.40625,-1.5625 z m 3.40625,-9.507812 c 0.14453,0 0.14453,0 0.14453,0 1.41797,0 2.55078,0.570312 3.40234,1.417969 0.85156,0.996093 1.27734,2.414062 1.27734,4.117187 0,1.699219 -0.42578,2.980469 -1.27734,3.972656 -0.85156,0.992188 -1.98437,1.5625 -3.40234,1.5625 0,0 0,0 -0.14453,0 v 13.757813 c 0.14453,0 0.14453,0 0.14453,0 2.55078,0 5.10547,-0.566406 7.3789,-1.558594 2.26563,-0.851562 4.39844,-2.269531 6.10157,-4.113281 1.83984,-1.703125 3.26171,-3.832031 4.11328,-6.101563 0.99218,-2.269531 1.41797,-4.824218 1.41797,-7.519531 0,-2.695312 -0.42579,-5.25 -1.41797,-7.519531 -0.85157,-2.269531 -2.12891,-4.398438 -3.97266,-6.101563 -1.70312,-1.84375 -3.83203,-3.261718 -6.10156,-4.113281 -2.41406,-0.992187 -4.82813,-1.417969 -7.51953,-1.417969 0,0 0,0 -0.14453,0 v 13.617188"
       id="path25" />
    <path
       style="fill:#000000;fill-opacity:1;fill-rule:nonzero;stroke:none"
       d="m 166.99609,76.894531 c -0.99218,-0.992187 -1.27343,-2.273437 -1.27343,-3.972656 0,-1.703125 0.28125,-2.980469 1.27343,-3.972656 0.85157,-0.992188 1.98828,-1.5625 3.40235,-1.5625 V 53.769531 c -2.69141,0 -5.10547,0.425782 -7.375,1.417969 -2.41016,0.851563 -4.53907,2.269531 -6.2461,4.113281 -1.84375,1.703125 -3.12109,3.832032 -3.96875,6.101563 -0.85156,2.269531 -1.41797,4.824219 -1.41797,7.519531 0,2.695313 0.56641,5.25 1.41797,7.519531 0.84766,2.269532 2.125,4.398438 3.96875,6.101563 1.70703,1.84375 3.97266,3.261719 6.2461,4.253906 2.26953,0.851563 4.82422,1.417969 7.375,1.417969 V 78.457031 c -1.41407,0 -2.55078,-0.570312 -3.40235,-1.5625 z m 3.40235,-9.507812 c 1.5625,0 2.69922,0.570312 3.55078,1.5625 0.85156,0.851562 1.27734,2.269531 1.27734,3.972656 0,1.699219 -0.42578,2.980469 -1.27734,3.972656 -0.85156,0.992188 -1.98828,1.5625 -3.55078,1.5625 v 13.757813 c 0.14453,0 0.14453,0 0.14453,0 2.55469,0 5.10937,-0.566406 7.3789,-1.417969 2.26954,-0.992187 4.39844,-2.410156 6.10157,-4.253906 1.83984,-1.703125 3.26172,-3.832031 4.11328,-6.101563 0.85156,-2.269531 1.41797,-4.824218 1.41797,-7.519531 0,-2.695312 -0.56641,-5.25 -1.41797,-7.519531 -0.85156,-2.269531 -2.12891,-4.398438 -3.97656,-6.101563 -1.69532,-1.84375 -3.82813,-3.261718 -6.23829,-4.113281 -2.26953,-0.992187 -4.82421,-1.417969 -7.3789,-1.417969 0,0 0,0 -0.14453,0 v 13.617188"
       id="path27" />
    <path
       style="fill:#000000;fill-opacity:1;fill-rule:nonzero;stroke:none"
       d="m 106.55469,117.04297 c -0.85547,-0.85156 -1.27735,-2.26953 -1.27735,-3.97266 0,-1.55859 0.42188,-2.83984 1.27735,-3.97265 0.85156,-0.99219 1.98437,-1.41407 3.54297,-1.41407 V 93.917969 c -2.69141,0 -5.2461,0.425781 -7.51953,1.421875 -2.26954,0.988281 -4.253911,2.269531 -6.101567,4.113281 -1.699219,1.843755 -3.121094,3.828125 -4.113282,6.101565 -0.851562,2.26562 -1.277343,4.82422 -1.277343,7.51562 0,2.83985 0.425781,5.25 1.277343,7.51953 0.992188,2.41407 2.414063,4.39844 4.113282,6.2461 1.847656,1.69922 3.832027,3.12109 6.101567,4.10937 2.27343,0.85156 4.82812,1.42188 7.51953,1.42188 v -13.76563 c -1.5586,0 -2.69141,-0.5625 -3.54297,-1.55859 z m 3.54297,-9.35938 c 1.42187,0 2.55859,0.42188 3.55078,1.41407 0.85156,1.13281 1.27734,2.41406 1.27734,3.97265 0,1.70313 -0.42578,3.1211 -1.27734,3.97266 -0.99219,0.99609 -2.12891,1.55859 -3.55078,1.55859 v 13.76563 c 2.55859,0 5.10937,-0.42578 7.52343,-1.42188 2.26954,-0.98828 4.39844,-2.41015 6.24219,-4.10937 1.69922,-1.84766 2.97656,-3.83203 3.97266,-6.2461 0.99218,-2.26953 1.27734,-4.82031 1.27734,-7.51953 0,-2.6914 -0.28516,-5.25 -1.27734,-7.51562 -0.9961,-2.27344 -2.27344,-4.25781 -3.97266,-6.101565 -1.84375,-1.84375 -3.83203,-3.125 -6.10156,-4.113281 -2.55469,-0.996094 -4.96484,-1.421875 -7.66406,-1.421875 v 13.765621"
       id="path29" />
    <path
       style="fill:none;stroke:#000000;stroke-width:6.70977;stroke-linecap:butt;stroke-linejoin:miter;stroke-miterlimit:4;stroke-opacity:1"
       d="m 1628.8281,980.32031 c 0,-18.4375 -15.625,-34.0625 -34.0625,-34.0625 -19.8828,0 -35.4687,15.625 -35.4687,34.0625 0,18.4375 15.5859,32.61719 35.4687,32.61719 18.4375,0 34.0625,-14.17969 34.0625,-32.61719 z m 0,0"
       transform="matrix(0.1,0,0,-0.1,0,145.7)"
       id="path31" />
    <path
       style="fill:#000000;fill-opacity:1;fill-rule:nonzero;stroke:none"
       d="m 158.625,47.667969 v -0.992188 h 0.85156 v -0.710937 h -1.5625 v 3.6875 h 0.71094 v -1.417969 h 0.85156 v -0.566406 z m 0.85156,-0.992188 h 0.14453 c 0.42188,0 0.5625,0.28125 0.5625,0.425782 0,0.425781 -0.28125,0.566406 -0.5625,0.566406 h -0.14453 v 0.566406 c 0.56641,0 0.56641,0.140625 0.56641,0.710938 0,0.425781 0,0.425781 0.14062,0.707031 h 0.71094 v -0.140625 c 0,-0.140625 0,-0.140625 0,-0.710938 0,-0.566406 -0.14453,-0.707031 -0.56641,-0.847656 0.42188,-0.144531 0.56641,-0.570312 0.56641,-0.996094 0,-0.140625 -0.14453,-0.992187 -1.13281,-0.992187 h -0.28516 v 0.710937"
       id="path33" />
  </g>
</svg>
